<svg version="1" xmlns="http://www.w3.org/2000/svg" width="170.667" height="170.667" viewBox="0 0 128.000000 128.000000"><path d="M0 21.5V43h43V0H0v21.5zm37 0V37H6V6h31v15.5z"/><path d="M12 21v9h18V12H12v9zM49 3c0 2.7.3 3 3 3s3-.3 3-3-.3-3-3-3-3 .3-3 3z"/><path d="M61 6v6H49v18h3c2.8 0 3 .3 3 3.5s-.2 3.5-3 3.5c-2.7 0-3 .3-3 3s.3 3 3 3 3-.3 3-3 .3-3 3-3 3 .3 3 3 .3 3 3 3 3 .3 3 3v3H49v3c0 2.7-.3 3-3 3s-3-.3-3-3-.3-3-3-3-3 .3-3 3c0 2.8-.3 3-3.5 3s-3.5.2-3.5 3c0 2.7-.3 3-3 3h-3V49H0v18h3c2.7 0 3-.3 3-3v-3h12v3c0 2.7.3 3 3 3h3v12h6V61h3.5c3.2 0 3.5.2 3.5 3 0 2.7.3 3 3 3s3 .3 3 3-.3 3-3 3-3 .3-3 3 .3 3 3 3 3-.3 3-3v-3h12v-3c0-2.7-.3-3-3-3s-3-.3-3-3v-3h12v6h12v-3c0-2.7.3-3 3-3s3 .3 3 3 .3 3 3 3h3V49h-6V30h-3c-2.7 0-3-.3-3-3s.3-3 3-3 3-.3 3-3-.3-3-3-3h-3V6h3c2.7 0 3-.3 3-3V0H61v6zm6 9c0 2.7.3 3 3 3s3 .3 3 3-.3 3-3 3-3 .3-3 3v3H55v-3c0-2.7.3-3 3-3h3V12h3c2.7 0 3 .3 3 3zm6 25c0 2.7-.3 3-3 3s-3-.3-3-3 .3-3 3-3 3 .3 3 3zM43 58c0 2.7-.3 3-3 3s-3-.3-3-3 .3-3 3-3 3 .3 3 3zm30 0c0 2.7-.3 3-3 3s-3-.3-3-3 .3-3 3-3 3 .3 3 3zM85 21.5V43h43V0H85v21.5zm37 0V37H91V6h31v15.5z"/><path d="M98 21v9h18V12H98v9zM98 52v3h18v-6H98v3z"/><path d="M122 55v6h-6v24h-3c-2.7 0-3-.3-3-3v-3H98v-6h12v-6H98v-3c0-2.8-.3-3-3.5-3s-3.5.2-3.5 3 .3 3 3.5 3 3.5.2 3.5 3v3H85v12h3c2.7 0 3-.3 3-3 0-2.8.3-3 3.5-3H98v12h-7v13h-3c-2.7 0-3 .3-3 3v3h13V91h6v13h3c2.7 0 3 .3 3 3s-.3 3-3 3-3 .3-3 3 .3 3 3 3 3-.3 3-3v-3h12V91h-3c-2.7 0-3-.3-3-3v-3h12v-3c0-2.7-.3-3-3-3h-3V67h6V49h-6v6z"/><path d="M61 76v3H49v6h12v3c0 2.7-.3 3-3 3h-3v13h-6v24h6v-12h3c2.7 0 3-.3 3-3s.3-3 3-3h3v18h37v-3c0-2.7-.3-3-3-3s-3-.3-3-3v-3H79v-12h-3c-2.7 0-3 .3-3 3s-.3 3-3 3-3-.3-3-3-.3-3-3-3h-3V91h3c2.8 0 3 .3 3 3.5V98h18v-7H73v-3c0-2.7.3-3 3-3h3V73H61v3zm12 6c0 2.7-.3 3-3 3s-3-.3-3-3 .3-3 3-3 3 .3 3 3zm6 37c0 2.7-.3 3-3 3s-3-.3-3-3 .3-3 3-3 3 .3 3 3zM0 106.5V128h43V85H0v21.5zm37 0V122H6V91h31v15.5z"/><path d="M12 107v9h18V98H12v9zM122 119c0 2.7.3 3 3 3s3-.3 3-3-.3-3-3-3-3 .3-3 3zM110 125c0 2.7.3 3 3 3s3-.3 3-3-.3-3-3-3-3 .3-3 3z"/></svg>